<svg width="180" height="180" viewBox="0 0 48 48" fill="none" xmlns="http://www.w3.org/2000/svg">
<path d="M0 24C0 16.5449 0 12.8174 1.21793 9.87706C2.84183 5.95662 5.95662 2.84183 9.87706 1.21793C12.8174 0 16.5449 0 24 0C31.4551 0 35.1826 0 38.1229 1.21793C42.0434 2.84183 45.1582 5.95662 46.7821 9.87706C48 12.8174 48 16.5449 48 24C48 31.4551 48 35.1826 46.7821 38.1229C45.1582 42.0434 42.0434 45.1582 38.1229 46.7821C35.1826 48 31.4551 48 24 48C16.5449 48 12.8174 48 9.87706 46.7821C5.95662 45.1582 2.84183 42.0434 1.21793 38.1229C0 35.1826 0 31.4551 0 24Z" fill="#2B303A"/>
<path d="M15.0057 21.0864C14.9903 17.4087 15.0074 14.2982 15.0417 14.1751C15.0898 14.0093 15.6629 13.9629 19.4897 14.0289L15.1138 14.1306L15.0332 27.7748L15.0057 21.0864Z" fill="#F4F1EA"/>
<path d="M32.7203 14.1395L27.7266 14.0253L32.8747 14.0414L32.9005 16.7167L32.7203 14.1395Z" fill="#F4F1EA"/>
<path d="M15.3729 29.2462C15.1705 28.3598 15.119 26.6957 15.1155 21.131L15.1138 14.1306L20.0903 14.1306L20.092 20.6851C20.0937 27.163 20.0989 27.2504 20.4919 28.1315C20.7098 28.622 21.1337 29.2444 21.434 29.5138C21.7325 29.7831 22.2679 30.0845 22.6214 30.1808C22.975 30.2789 23.5738 30.3592 23.9514 30.3592C24.3289 30.3592 24.9278 30.2789 25.2813 30.1808C25.6348 30.0845 26.2388 29.7028 26.6232 29.3354C27.1123 28.8681 27.3972 28.3973 27.5688 27.7748C27.7043 27.2843 27.8159 26.5013 27.8142 26.0358C27.8124 25.1922 27.8159 25.1886 28.456 25.0941C28.8095 25.0442 29.5817 24.7624 30.172 24.4699C30.7623 24.1791 31.6392 23.5585 33 22.2458L32.9159 25.5453C32.8576 27.7659 32.746 29.1071 32.5744 29.6475C32.4354 30.0899 32.142 30.8104 31.9258 31.2527C31.7095 31.6951 31.1724 32.4156 30.7331 32.8579C30.2955 33.3003 29.5165 33.8728 29.0034 34.135C28.4903 34.3954 27.6065 34.6968 27.0402 34.8038C26.4739 34.9126 25.0067 35 23.7798 35C22.3074 35 21.1989 34.9055 20.5193 34.72C19.953 34.5666 19.1139 34.2259 18.654 33.962C18.1941 33.698 17.494 33.1219 17.0958 32.6796C16.6977 32.2373 16.2052 31.5363 16.001 31.119C15.7951 30.7016 15.5137 29.8598 15.3729 29.2462Z" fill="#F4F1EA"/>
<path d="M28.1557 21.9782C27.8227 21.9782 27.8124 21.8587 27.8124 18.0544V14.1306L32.8747 14.1288L32.7803 15.9569C32.7014 17.4997 32.607 17.9545 32.1815 18.857C31.9052 19.4456 31.3681 20.2303 30.9888 20.6013C30.6096 20.9723 29.894 21.4342 29.3998 21.6269C28.9038 21.8195 28.3444 21.9782 28.1557 21.9782Z" fill="#F4F1EA"/>
</svg>

