<svg width="54" height="54" viewBox="0 0 54 54" fill="none" xmlns="http://www.w3.org/2000/svg">
<g filter="url(#filter0_d_224_2555)">
<path d="M3 25C3 17.5449 3 13.8174 4.21793 10.8771C5.84183 6.95662 8.95662 3.84183 12.8771 2.21793C15.8174 1 19.5449 1 27 1V1C34.4551 1 38.1826 1 41.1229 2.21793C45.0434 3.84183 48.1582 6.95662 49.7821 10.8771C51 13.8174 51 17.5449 51 25V25C51 32.4551 51 36.1826 49.7821 39.1229C48.1582 43.0434 45.0434 46.1582 41.1229 47.7821C38.1826 49 34.4551 49 27 49V49C19.5449 49 15.8174 49 12.8771 47.7821C8.95662 46.1582 5.84183 43.0434 4.21793 39.1229C3 36.1826 3 32.4551 3 25V25Z" fill="#2B303A"/>
</g>
<path fill-rule="evenodd" clip-rule="evenodd" d="M36.0806 15.1573C35.7933 15.1133 35.2203 15.0487 34.8088 15.015C34.3973 14.9797 33.6237 15.0091 33.0881 15.0781C32.304 15.1779 31.4795 15.5051 28.8236 16.7701C27.0131 17.6315 23.9487 19.1064 22.0155 20.0471C20.0823 20.9863 17.9261 22.062 17.2273 22.4347C16.5286 22.8075 15.6263 23.3974 15.2223 23.7467C14.8198 24.0945 14.3081 24.6448 14.0851 24.9677C13.8622 25.2905 13.5255 25.9509 13.3355 26.4352C13.0706 27.1147 12.9943 27.6019 13.0003 28.5631C13.0048 29.401 13.1021 30.0746 13.2951 30.6176C13.4537 31.0623 13.7874 31.7227 14.0357 32.0851C14.2841 32.4476 14.7839 32.9994 15.1475 33.3091C15.5096 33.6187 16.1934 34.0648 16.6662 34.2996C17.1391 34.5344 18.0144 34.8045 18.6114 34.8998C19.4464 35.0334 19.9207 35.0334 20.6688 34.8998C21.393 34.7707 22.8848 34.1397 26.5044 32.4329C29.1782 31.1723 32.6466 29.5405 34.2103 28.8082C35.7739 28.0744 37.4408 27.257 37.9136 26.9914C38.4687 26.6803 39.0672 26.1564 39.5999 25.518C40.1535 24.8532 40.5052 24.2618 40.6668 23.7203C40.7985 23.2756 40.9421 22.4832 40.984 21.9593C41.0274 21.4354 40.9795 20.5754 40.8777 20.0515C40.776 19.5276 40.5142 18.7747 40.2942 18.3814C40.0758 17.9867 39.4757 17.2764 38.961 16.8039C38.4463 16.3299 37.7056 15.7839 37.3151 15.5902C36.9245 15.3965 36.3679 15.2013 36.0806 15.1573Z" fill="#F4F1EA"/>
<defs>
<filter id="filter0_d_224_2555" x="0" y="0" width="54" height="54" filterUnits="userSpaceOnUse" color-interpolation-filters="sRGB">
<feFlood flood-opacity="0" result="BackgroundImageFix"/>
<feColorMatrix in="SourceAlpha" type="matrix" values="0 0 0 0 0 0 0 0 0 0 0 0 0 0 0 0 0 0 127 0" result="hardAlpha"/>
<feOffset dy="2"/>
<feGaussianBlur stdDeviation="1.5"/>
<feColorMatrix type="matrix" values="0 0 0 0 0 0 0 0 0 0 0 0 0 0 0 0 0 0 0.03 0"/>
<feBlend mode="normal" in2="BackgroundImageFix" result="effect1_dropShadow_224_2555"/>
<feBlend mode="normal" in="SourceGraphic" in2="effect1_dropShadow_224_2555" result="shape"/>
</filter>
</defs>
</svg>
