<svg width="382" height="98" viewBox="0 0 382 98" fill="none" xmlns="http://www.w3.org/2000/svg">
<path fill-rule="evenodd" clip-rule="evenodd" d="M348.568 21.5834V9.13086C339.147 9.13086 336.346 9.21906 336.263 9.32802C336.18 9.43698 336.144 24.8755 336.185 43.6373L336.258 77.7494C345.095 77.8636 347.894 77.8376 348.179 77.7702C348.689 77.6431 348.697 77.4278 348.697 63.2967C348.697 49.1294 348.705 48.9296 349.285 47.0073C349.609 45.9384 350.148 44.5946 350.485 44.0238C350.825 43.4531 351.667 42.4673 352.359 41.8317C353.054 41.1961 354.261 40.3867 355.047 40.0339C355.951 39.6266 357.133 39.349 358.286 39.2712C359.644 39.1804 360.556 39.2841 361.914 39.6888C363.231 40.0806 364.076 40.5346 364.996 41.3466C365.69 41.964 366.53 42.9343 366.861 43.505C367.191 44.0757 367.667 45.3028 367.921 46.229C368.336 47.7518 368.383 49.3681 368.388 62.8324L368.393 77.7494H381.092C381.214 52.1206 381.141 46.1278 380.952 44.6724C380.796 43.4583 380.431 41.5904 380.146 40.5216C379.858 39.4502 379.125 37.5252 378.513 36.241C377.601 34.3316 377.072 33.6001 375.598 32.2199C374.608 31.2937 372.991 30.1056 372.003 29.5789C371.016 29.0549 369.334 28.383 368.264 28.0872C366.908 27.7111 365.555 27.5502 363.793 27.5502C362.404 27.5502 360.362 27.7344 359.258 27.9575C358.154 28.1806 356.376 28.7851 355.306 29.2987C353.787 30.0303 352.867 30.736 351.094 32.5234C349.501 34.1345 348.788 34.6974 348.697 34.425C348.625 34.2123 348.568 28.4323 348.568 21.5834ZM268.877 28.7176L269.012 13.5411C268.105 13.5723 266.731 14.0833 265.378 14.693C264.025 15.3052 261.722 16.3481 260.26 17.0097C258.798 17.6686 257.313 18.3872 256.956 18.6L256.308 18.9891L256.178 28.7176C250.355 28.7565 248.458 28.8422 248.209 28.9355C247.797 29.0912 247.756 29.5919 247.756 34.2953V39.4839H256.049C256.222 63.6833 256.31 66.3554 256.639 67.6318C256.857 68.4879 257.168 69.5956 257.326 70.0963C257.487 70.597 257.959 71.5284 258.373 72.1718C258.79 72.8151 259.633 73.8243 260.247 74.4184C260.859 75.0125 261.944 75.8426 262.657 76.2603C263.37 76.678 265.002 77.3421 266.285 77.7339C267.923 78.2346 269.426 78.4888 271.339 78.5848C272.837 78.66 274.876 78.5952 275.874 78.4369C276.872 78.2813 278.3 77.9725 279.049 77.7572L280.409 77.3603V66.7238C278.701 66.9132 277.507 67.0455 276.652 67.1389C275.796 67.2297 274.397 67.2245 273.542 67.1207C272.137 66.9547 271.873 66.8172 270.805 65.7276C270.072 64.9752 269.457 64.0283 269.185 63.2215C268.794 62.0696 268.752 60.6843 268.812 50.769L268.877 39.6136L280.409 39.4839V28.8473L268.877 28.7176ZM87.0784 28.0794C85.3783 27.7448 83.4839 27.558 82.0248 27.5813C80.742 27.6021 79.4358 27.6851 79.1223 27.7603C78.8087 27.8382 77.7591 28.1235 76.7899 28.3933C75.8206 28.6657 74.2683 29.3039 73.3431 29.8124C72.3401 30.365 70.8085 31.5895 69.5594 32.8425C67.5613 34.8401 67.4498 34.9128 67.3099 34.2953C67.227 33.9399 67.0767 32.5961 66.9756 31.3119C66.8719 30.0277 66.6594 28.8914 66.5039 28.7877C66.3458 28.6813 63.8242 28.5957 60.9035 28.5957C57.9802 28.5957 55.3291 28.6528 55.0077 28.7202C54.492 28.8318 54.4246 29.0056 54.4298 30.2093C54.4324 30.9591 54.5438 32.3315 54.6734 33.2576C54.8056 34.1838 54.9481 48.9219 54.9922 66.0078C55.044 86.4325 55.1606 97.0949 55.3317 97.139C55.4742 97.1753 58.3016 97.1779 61.6162 97.1416L67.6416 97.0767L67.6364 72.042C70.1503 74.4988 71.4642 75.6014 72.1769 76.0787C72.8895 76.5535 74.2009 77.2695 75.0924 77.6716C75.9839 78.0711 77.4403 78.5718 78.3318 78.7846C79.2233 78.9947 81.0012 79.1685 82.284 79.1659C83.6731 79.1659 85.5597 78.9532 86.9488 78.6419C88.2316 78.3539 89.9809 77.7806 90.8362 77.3681C91.6914 76.953 93.0908 76.1617 93.946 75.6066C94.8013 75.0514 96.2422 73.8477 97.1466 72.9293C98.0537 72.0135 99.4039 70.3298 100.15 69.1883C100.897 68.0469 101.775 66.4695 102.104 65.6861C102.431 64.9026 102.918 63.5017 103.188 62.5729C103.454 61.6468 103.859 59.7789 104.082 58.4221C104.305 57.0653 104.481 54.7901 104.468 53.3633C104.457 51.9364 104.323 49.835 104.167 48.6936C104.014 47.5521 103.662 45.7439 103.385 44.6724C103.107 43.6036 102.589 41.9692 102.234 41.0404C101.879 40.1143 101.27 38.8094 100.878 38.14C100.487 37.4733 99.4376 36.0439 98.5461 34.9621C97.6546 33.8828 96.2551 32.4767 95.4362 31.8359C94.6172 31.1978 93.0131 30.2119 91.8728 29.6438C90.4552 28.9407 88.9391 28.4452 87.0784 28.0794ZM71.5031 42.5918C72.3013 41.8057 73.6541 40.7914 74.5093 40.3374C75.4656 39.8315 76.6991 39.432 77.7176 39.2997C78.6273 39.1803 80.0267 39.1674 80.8275 39.2712C81.6283 39.3749 82.8075 39.6473 83.4502 39.873C84.0929 40.1013 85.1891 40.6617 85.8914 41.1183C86.5912 41.5749 87.6563 42.5322 88.255 43.2456C88.8562 43.959 89.5818 45.0097 89.8695 45.5804C90.1546 46.1512 90.5822 47.2615 90.8154 48.045C91.0513 48.8285 91.313 50.5225 91.4037 51.8067C91.4996 53.1998 91.4322 55.1351 91.2353 56.6061C91.0279 58.1705 90.6444 59.6388 90.1908 60.6272C89.7969 61.4833 88.8951 62.8272 88.1876 63.6106C87.4697 64.4097 86.2283 65.3981 85.3705 65.8573C84.5283 66.3087 83.1392 66.8794 82.284 67.1259C81.1126 67.4605 80.2496 67.5306 78.7854 67.4061C77.3496 67.2815 76.3674 67.0092 75.0276 66.3658C74.0298 65.8858 72.747 65.1491 72.1769 64.7314C71.6067 64.3111 70.6763 63.276 70.1114 62.4277C69.5464 61.5793 68.8026 60.1265 68.4605 59.2004C67.9578 57.8462 67.8101 56.8526 67.709 54.1415C67.6131 51.4928 67.6805 50.3798 68.0329 48.953C68.2791 47.9542 68.8337 46.4365 69.2665 45.5804C69.6993 44.7243 70.7049 43.3805 71.5031 42.5918ZM136.318 28.4297C134.211 27.846 133.221 27.7344 129.451 27.654C125.843 27.5761 124.646 27.6462 122.842 28.0457C121.629 28.3129 119.996 28.7721 119.214 29.0679C118.431 29.3636 117.089 30.0589 116.234 30.6166C115.378 31.1718 113.943 32.373 113.043 33.2861C112.097 34.2434 111.126 35.5458 110.742 36.3708C110.377 37.1542 109.92 38.5577 109.726 39.4839C109.534 40.41 109.374 42.1041 109.374 43.2456C109.374 44.3871 109.547 46.05 109.757 46.9424C109.97 47.8349 110.361 49.0023 110.628 49.5367C110.895 50.0711 111.698 51.1529 112.411 51.9364C113.124 52.7199 114.451 53.8043 115.36 54.3413C116.267 54.8783 117.944 55.6799 119.084 56.1184C120.225 56.5594 123.783 57.4933 126.989 58.1964C130.197 58.8968 133.449 59.7322 134.222 60.0487C134.991 60.3678 135.955 61.006 136.36 61.4704C136.808 61.984 137.158 62.7468 137.256 63.4161C137.344 64.0231 137.29 64.9259 137.137 65.4266C136.984 65.9273 136.533 66.6615 136.134 67.061C135.738 67.4605 134.945 68.0002 134.375 68.2622C133.804 68.5242 132.638 68.8822 131.783 69.0586C130.788 69.2636 129.528 69.3129 128.284 69.1961C127.217 69.0975 125.758 68.7966 125.045 68.532C124.332 68.2648 123.176 67.5462 122.474 66.9313C121.735 66.2853 120.945 65.271 120.598 64.5186C120.266 63.8052 119.996 62.8998 119.994 62.5081C119.991 62.1163 119.875 61.735 119.732 61.6649C119.59 61.5949 116.995 61.7713 113.966 62.0619C110.936 62.3524 108.254 62.643 108.005 62.7104C107.645 62.8064 107.585 63.0062 107.715 63.6755C107.803 64.1399 108.106 65.2191 108.389 66.0752C108.671 66.9313 109.241 68.3322 109.656 69.1883C110.071 70.0445 110.962 71.4142 111.639 72.2314C112.312 73.0486 113.624 74.3042 114.549 75.0203C115.661 75.8816 117.135 76.6754 118.89 77.3603C120.352 77.931 122.567 78.5744 123.814 78.7897C125.06 79.0051 127.541 79.1815 129.321 79.1815C131.104 79.1815 133.553 79.0103 134.763 78.8027C135.974 78.5952 137.842 78.11 138.91 77.7235C139.98 77.3369 141.553 76.6106 142.408 76.1099C143.264 75.6092 144.72 74.4288 145.648 73.4896C146.576 72.5479 147.7 71.0796 148.151 70.2234C148.602 69.3699 149.178 67.969 149.432 67.1129C149.748 66.0389 149.888 64.7132 149.877 62.8324C149.869 60.7076 149.737 59.7374 149.286 58.4221C148.965 57.4959 148.278 56.1028 147.76 55.3323C147.239 54.5592 146.171 53.3477 145.389 52.6395C144.606 51.9312 143.44 51.0881 142.797 50.769C142.154 50.4473 140.815 49.8947 139.817 49.5393C138.819 49.1839 136.546 48.5846 134.763 48.2032C132.983 47.8245 130.241 47.2122 128.673 46.8464C127.105 46.478 125.239 45.9047 124.527 45.57C123.814 45.2354 122.94 44.6517 122.583 44.2729C122.106 43.767 121.909 43.2352 121.842 42.2494C121.756 41.056 121.842 40.7836 122.619 39.7589C123.117 39.0999 124.039 38.3242 124.778 37.9429C125.91 37.3592 126.369 37.2813 128.536 37.3021C130.404 37.3177 131.353 37.4578 132.431 37.8806C133.213 38.1841 134.266 38.7679 134.763 39.1752C135.261 39.5799 135.932 40.4593 136.253 41.1261C136.575 41.7928 136.837 42.5711 136.837 42.8564C136.837 43.1444 137.031 43.4038 137.272 43.4401C137.51 43.4765 139.114 43.4194 140.835 43.3156C142.556 43.2092 145.07 42.9732 146.425 42.789L148.887 42.4569C148.786 40.4541 148.623 39.5228 148.46 39.0947C148.296 38.6667 147.817 37.5563 147.4 36.6302C146.835 35.3797 146.125 34.4406 144.653 32.9956C143.269 31.6414 142.079 30.7567 140.724 30.0796C139.656 29.5452 137.674 28.8032 136.318 28.4297ZM312.415 27.9575C311.132 27.7344 308.917 27.558 307.491 27.5684C305.877 27.5787 303.824 27.8044 302.049 28.1702C300.481 28.4919 298.382 29.1353 297.384 29.5971C296.386 30.0615 294.653 31.1044 293.53 31.9138C292.408 32.7232 290.941 34.0307 290.27 34.8142C289.596 35.5977 288.581 36.9415 288.008 37.7976C287.435 38.6537 286.606 40.1143 286.165 41.0404C285.722 41.9666 285.116 43.4868 284.815 44.413C284.517 45.3391 284.102 47.207 283.898 48.5638C283.69 49.9206 283.522 52.1362 283.522 53.493C283.522 54.8498 283.701 57.0653 283.918 58.4221C284.139 59.7789 284.722 62.0541 285.219 63.4809C285.717 64.9078 286.634 66.8924 287.259 67.8912C287.886 68.89 288.858 70.2909 289.423 71.0043C289.985 71.7178 291.25 72.9552 292.232 73.7517C293.212 74.5481 294.655 75.5625 295.44 76.0035C296.226 76.4445 297.799 77.1657 298.939 77.6042C300.079 78.0452 301.945 78.5952 303.086 78.8261C304.695 79.1504 306.03 79.2126 309.046 79.1011C311.205 79.018 313.682 78.7716 314.618 78.5407C315.546 78.3124 317.523 77.516 319.019 76.7714C321.131 75.7155 322.188 74.9813 323.777 73.4689C324.901 72.4 326.36 70.706 327.016 69.7072C327.672 68.7084 328.662 66.7238 329.216 65.2969C329.771 63.8701 330.24 62.2409 330.261 61.6779C330.292 60.7933 330.206 60.6246 329.649 60.4586C329.294 60.3522 326.697 59.9086 323.883 59.4728C321.068 59.0369 318.676 58.7256 318.57 58.7801C318.464 58.832 318.277 59.3275 318.156 59.8827C318.034 60.4353 317.642 61.4704 317.285 62.1838C316.927 62.8972 316.036 64.0465 315.302 64.7366C314.569 65.4266 313.213 66.3606 312.286 66.812C310.736 67.5669 310.394 67.6318 308.01 67.6292C305.623 67.6266 305.278 67.5591 303.669 66.786C302.65 66.2957 301.344 65.3774 300.543 64.5835C299.786 63.8338 298.742 62.4614 298.224 61.5352C297.703 60.6039 297.042 58.8631 296.752 57.6438C296.459 56.4297 296.22 54.5929 296.22 53.5578C296.218 52.5227 296.386 50.8883 296.591 49.9258C296.793 48.9634 297.407 47.1318 297.952 45.8554C298.714 44.0628 299.263 43.2093 300.364 42.1067C301.233 41.2376 302.448 40.3711 303.474 39.8886C305.034 39.1544 305.371 39.0947 308.01 39.0947C310.518 39.0947 311.031 39.1752 312.286 39.7563C313.071 40.1195 314.281 40.9367 314.978 41.5723C315.675 42.2079 316.502 43.134 316.818 43.6347C317.132 44.1354 317.58 45.155 317.816 45.9047C318.124 46.8801 318.376 47.2615 318.7 47.2511C318.949 47.2434 321.659 46.8049 324.725 46.2783L330.297 45.321C330.175 44.317 329.898 43.2637 329.602 42.3376C329.31 41.4114 328.592 39.6603 328.011 38.4462C327.153 36.6587 326.555 35.8467 324.842 34.1656C323.634 32.9774 321.856 31.5713 320.682 30.8787C319.558 30.2119 317.762 29.374 316.691 29.016C315.624 28.658 313.698 28.1806 312.415 27.9575ZM193.851 28.8473C193.553 28.6969 191.057 28.5957 187.955 28.6035C184.998 28.6139 182.339 28.7228 182.049 28.8473C181.754 28.9719 181.432 29.4492 181.316 29.9317C181.202 30.4065 180.945 31.3768 180.743 32.0902C180.541 32.8036 179.906 35.0788 179.33 37.149C178.755 39.2193 178.045 41.785 177.755 42.8564C177.465 43.9253 177.063 45.3859 176.861 46.0993C176.659 46.8127 175.809 49.848 174.974 52.8444C174.137 55.8408 173.29 58.9072 173.09 59.657C172.893 60.4093 172.67 61.0242 172.6 61.0267C172.53 61.0267 172.268 60.2952 172.022 59.4001C171.779 58.5051 171.162 56.0821 170.654 54.0118C170.146 51.9416 169.451 48.966 169.109 47.3964C168.767 45.8269 168.303 44.1043 168.08 43.5699C167.858 43.0354 167.316 41.2246 166.873 39.5487C166.432 37.8728 165.637 34.809 165.108 32.7388L164.146 28.9771C154.33 28.8707 151.334 28.8992 151.155 28.9745C150.909 29.073 150.986 29.5971 151.468 31.1173C151.821 32.2225 152.588 34.7026 153.174 36.6302C153.759 38.5577 154.534 41.1235 154.895 42.3376C155.255 43.5517 155.817 45.4767 156.144 46.6181C156.473 47.7596 158.168 53.2465 159.912 58.8112C161.656 64.376 163.535 70.4466 164.084 72.3015C164.636 74.1564 165.134 75.9075 165.191 76.1929C165.25 76.4782 165.367 76.9167 165.45 77.1657C165.533 77.4148 165.865 77.682 166.186 77.7572C166.507 77.8325 169.438 77.8636 172.704 77.8221L178.636 77.7494C179.561 74.7323 180.473 71.5232 181.261 68.6695C182.049 65.8158 183.238 61.5534 183.902 59.2004C184.565 56.8474 185.452 53.6927 185.872 52.1958C186.126 51.2887 186.445 50.1472 186.726 49.1415C186.909 48.4875 187.076 47.891 187.198 47.4535C187.507 46.3432 187.82 45.4377 187.89 45.4377C187.96 45.4377 188.523 47.3393 189.14 49.6612C189.754 51.9831 190.591 54.9899 190.995 56.3467C191.402 57.7035 192.623 62.0204 193.708 65.9455C194.794 69.868 195.922 73.897 196.215 74.8957C196.507 75.8945 196.852 76.9738 196.984 77.2954C197.22 77.8791 197.233 77.8792 203.44 77.8792C209.628 77.8792 209.662 77.8766 209.958 77.2954C210.121 76.9738 210.538 75.7207 210.88 74.5066C211.225 73.2925 212.186 70.143 213.018 67.5021C213.848 64.8611 214.84 61.5949 215.224 60.2381C215.605 58.8813 216.268 56.6061 216.693 55.1792C217.121 53.7524 217.758 51.7081 218.113 50.6393C218.466 49.5678 218.865 48.4601 218.997 48.1747C219.129 47.8893 219.344 47.1889 219.476 46.6181C219.606 46.0474 220.65 42.4855 221.798 38.7056C222.947 34.9257 224.066 31.247 224.284 30.5336C224.504 29.8202 224.685 29.1483 224.688 29.0419C224.691 28.9355 221.775 28.8473 218.212 28.8473C213.251 28.8473 211.709 28.9226 211.637 29.1716C211.583 29.3506 211.339 30.3702 211.095 31.4416C210.849 32.5105 210.429 34.2045 210.16 35.2033C209.96 35.9422 209.523 37.5728 209.068 39.2663C208.908 39.8619 208.746 40.4653 208.592 41.0404C208.318 42.0566 208.024 43.1489 207.762 44.1226C207.455 45.2669 207.191 46.2475 207.055 46.7478C206.804 47.674 206.112 50.302 205.513 52.585C204.917 54.8679 204.199 57.6698 203.919 58.8112C203.639 59.9527 203.365 60.9463 203.31 61.0164C203.256 61.0864 202.927 60.1551 202.577 58.9409C202.23 57.7268 201.885 56.5023 201.812 56.217C201.742 55.9316 200.965 53.1298 200.089 49.9907C199.21 46.8516 198.036 42.5322 197.477 40.3919C196.917 38.2516 196.062 35.333 195.577 33.9062C195.092 32.4793 194.623 30.8164 194.533 30.2093C194.424 29.4743 194.197 29.0203 193.851 28.8473ZM242.241 28.9018C242 28.645 240.722 28.5775 236.871 28.6139C234.09 28.6398 231.372 28.7332 230.827 28.8188L229.838 28.9771C229.744 77.4459 229.749 77.6431 230.263 77.7702C230.548 77.8376 233.406 77.8636 236.612 77.8221L242.443 77.7494C242.544 34.6793 242.487 29.1613 242.241 28.9018Z" fill="#F4F1EA"/>
<path d="M0.0144335 46.328C-0.0245917 37.3853 0.01876 29.8217 0.105483 29.5225C0.226894 29.1192 1.67517 29.0064 11.3447 29.1669L0.287612 29.4141L0.0838152 62.5914L0.0144335 46.328Z" fill="#F4F1EA"/>
<path d="M44.7763 29.4358L32.1582 29.1582L45.1666 29.1972L45.2316 35.7026L44.7763 29.4358Z" fill="#F4F1EA"/>
<path d="M0.942366 66.1694C0.430703 64.0139 0.300617 59.9676 0.291945 46.4364L0.287612 29.4141L12.8624 29.4141L12.8667 45.3522C12.8711 61.1039 12.8841 61.3164 13.877 63.4588C14.4277 64.6515 15.4988 66.165 16.2576 66.8199C17.0121 67.4748 18.3649 68.2077 19.2582 68.4419C20.1514 68.6804 21.6647 68.8756 22.6187 68.8756C23.5726 68.8756 25.0859 68.6804 25.9792 68.4419C26.8724 68.2077 28.3987 67.2796 29.37 66.3862C30.6058 65.2499 31.3256 64.105 31.7592 62.5914C32.1018 61.3988 32.3837 59.4949 32.3793 58.3629C32.375 56.3116 32.3837 56.3029 34.001 56.073C34.8943 55.9516 36.8455 55.2664 38.3372 54.5551C39.8288 53.8482 42.0446 52.339 45.4831 49.147L45.2706 57.1703C45.1232 62.5697 44.8414 65.8311 44.4077 67.1452C44.0565 68.2207 43.315 69.9728 42.7687 71.0484C42.2223 72.124 40.8651 73.8761 39.7551 74.9516C38.6494 76.0272 36.6808 77.4193 35.3843 78.0568C34.0878 78.69 31.8546 79.423 30.4237 79.6832C28.9928 79.9477 25.2854 80.1602 22.1851 80.1602C18.4647 80.1602 15.6635 79.9304 13.9464 79.4793C12.5155 79.1064 10.3951 78.278 9.23305 77.6362C8.07096 76.9943 6.30182 75.5935 5.29584 74.5179C4.28985 73.4424 3.04539 71.738 2.52939 70.7231C2.00905 69.7083 1.29793 67.6613 0.942366 66.1694Z" fill="#F4F1EA"/>
<path d="M33.2422 48.4965C32.401 48.4965 32.375 48.2059 32.375 38.9553V29.4141L45.1666 29.4098L44.9281 33.8551C44.7286 37.6065 44.4901 38.7124 43.4148 40.9069C42.7167 42.3381 41.3595 44.2463 40.4012 45.1484C39.4429 46.0505 37.6347 47.1737 36.3859 47.6421C35.1328 48.1105 33.7192 48.4965 33.2422 48.4965Z" fill="#F4F1EA"/>
</svg>
