<svg width="381" height="112" viewBox="0 0 381 112" fill="none" xmlns="http://www.w3.org/2000/svg">
<path fill-rule="evenodd" clip-rule="evenodd" d="M348.084 35.9104V23.4579C338.664 23.4579 335.862 23.5461 335.779 23.6551C335.696 23.7641 335.66 39.2026 335.701 57.9644L335.774 92.0765C344.611 92.1906 347.41 92.1647 347.695 92.0972C348.206 91.9701 348.214 91.7548 348.214 77.6238C348.214 63.4565 348.221 63.2567 348.802 61.3343C349.126 60.2655 349.665 58.9217 350.002 58.3509C350.341 57.7802 351.183 56.7944 351.875 56.1588C352.57 55.5232 353.778 54.7137 354.563 54.3609C355.467 53.9536 356.649 53.676 357.802 53.5982C359.16 53.5074 360.073 53.6112 361.431 54.0159C362.747 54.4076 363.592 54.8616 364.512 55.6736C365.206 56.2911 366.046 57.2613 366.378 57.8321C366.707 58.4028 367.184 59.6299 367.438 60.5561C367.852 62.0789 367.899 63.6951 367.904 77.1594L367.909 92.0765H380.608C380.73 66.4476 380.657 60.4549 380.468 58.9995C380.313 57.7854 379.947 55.9175 379.662 54.8487C379.375 53.7772 378.641 51.8523 378.03 50.5681C377.117 48.6587 376.589 47.9271 375.114 46.547C374.124 45.6208 372.507 44.4326 371.519 43.906C370.532 43.382 368.85 42.71 367.78 42.4143C366.424 42.0381 365.072 41.8773 363.309 41.8773C361.92 41.8773 359.878 42.0615 358.774 42.2846C357.67 42.5077 355.892 43.1122 354.822 43.6258C353.303 44.3574 352.383 45.063 350.611 46.8505C349.017 48.4615 348.304 49.0245 348.214 48.7521C348.141 48.5394 348.084 42.7593 348.084 35.9104ZM268.393 43.0447L268.528 27.8682C267.621 27.8993 266.247 28.4104 264.895 29.0201C263.542 29.6323 261.238 30.6752 259.776 31.3367C258.315 31.9957 256.83 32.7143 256.472 32.927L255.824 33.3162L255.695 43.0447C249.871 43.0836 247.974 43.1692 247.725 43.2626C247.313 43.4183 247.272 43.919 247.272 48.6224V53.8109H255.565C255.739 78.0103 255.827 80.6824 256.156 81.9588C256.374 82.8149 256.684 83.9227 256.843 84.4234C257.003 84.9241 257.475 85.8554 257.89 86.4988C258.307 87.1422 259.149 88.1513 259.763 88.7454C260.375 89.3395 261.461 90.1697 262.173 90.5874C262.886 91.0051 264.519 91.6692 265.802 92.0609C267.439 92.5616 268.943 92.8159 270.855 92.9118C272.353 92.9871 274.393 92.9222 275.39 92.764C276.388 92.6083 277.816 92.2996 278.565 92.0843L279.926 91.6874V81.0508C278.218 81.2402 277.023 81.3725 276.168 81.4659C275.313 81.5567 273.913 81.5515 273.058 81.4477C271.653 81.2817 271.389 81.1442 270.321 80.0546C269.588 79.3023 268.974 78.3554 268.702 77.5485C268.31 76.3967 268.269 75.0114 268.328 65.096L268.393 53.9407L279.926 53.8109V43.1744L268.393 43.0447ZM86.5947 42.4065C84.8946 42.0719 83.0002 41.8851 81.5411 41.9084C80.2583 41.9292 78.9521 42.0122 78.6386 42.0874C78.325 42.1652 77.2754 42.4506 76.3062 42.7204C75.3369 42.9928 73.7845 43.631 72.8594 44.1395C71.8564 44.6921 70.3248 45.9166 69.0757 47.1696C67.0776 49.1672 66.9661 49.2398 66.8262 48.6224C66.7433 48.267 66.593 46.9231 66.4919 45.639C66.3882 44.3548 66.1757 43.2185 66.0202 43.1147C65.8621 43.0084 63.3405 42.9228 60.4198 42.9228C57.4965 42.9228 54.8454 42.9798 54.524 43.0473C54.0083 43.1588 53.9409 43.3327 53.9461 44.5364C53.9487 45.2862 54.0601 46.6585 54.1897 47.5847C54.3219 48.5108 54.4644 63.2489 54.5085 80.3348C54.5603 100.76 54.6769 111.422 54.848 111.466C54.9905 111.502 57.8179 111.505 61.1325 111.469L67.1579 111.404L67.1527 86.3691C69.6665 88.8259 70.9805 89.9284 71.6932 90.4058C72.4058 90.8805 73.7172 91.5965 74.6087 91.9987C75.5002 92.3982 76.9566 92.8989 77.8481 93.1116C78.7396 93.3217 80.5174 93.4956 81.8003 93.493C83.1894 93.493 85.076 93.2802 86.4651 92.9689C87.7479 92.6809 89.4972 92.1076 90.3524 91.6951C91.2077 91.28 92.6071 90.4888 93.4623 89.9336C94.3176 89.3784 95.7585 88.1747 96.6629 87.2563C97.57 86.3405 98.9202 84.6569 99.6665 83.5154C100.413 82.3739 101.291 80.7966 101.621 80.0131C101.947 79.2296 102.434 77.8287 102.704 76.9C102.971 75.9738 103.375 74.106 103.598 72.7491C103.821 71.3923 103.997 69.1172 103.984 67.6903C103.974 66.2635 103.839 64.1621 103.683 63.0206C103.531 61.8791 103.178 60.0709 102.901 58.9995C102.624 57.9306 102.105 56.2963 101.75 55.3675C101.395 54.4413 100.786 53.1364 100.395 52.4671C100.003 51.8004 98.9539 50.3709 98.0624 49.2891C97.1709 48.2099 95.7714 46.8038 94.9525 46.163C94.1335 45.5248 92.5294 44.539 91.3891 43.9709C89.9715 43.2678 88.4554 42.7723 86.5947 42.4065ZM71.0193 56.9189C71.8175 56.1328 73.1703 55.1185 74.0256 54.6645C74.9819 54.1586 76.2154 53.7591 77.2339 53.6267C78.1436 53.5074 79.543 53.4944 80.3438 53.5982C81.1446 53.702 82.3238 53.9744 82.9665 54.2001C83.6092 54.4284 84.7054 54.9887 85.4077 55.4453C86.1075 55.9019 87.1726 56.8592 87.7712 57.5726C88.3725 58.2861 89.0981 59.3367 89.3858 59.9075C89.6709 60.4782 90.0985 61.5886 90.3317 62.372C90.5676 63.1555 90.8293 64.8496 90.92 66.1337C91.0159 67.5269 90.9485 69.4622 90.7515 70.9332C90.5442 72.4975 90.1607 73.9659 89.7071 74.9543C89.3132 75.8104 88.4114 77.1542 87.7039 77.9377C86.986 78.7367 85.7446 79.7251 84.8868 80.1843C84.0446 80.6357 82.6555 81.2065 81.8003 81.4529C80.6289 81.7876 79.7659 81.8576 78.3017 81.7331C76.8659 81.6086 75.8837 81.3362 74.5439 80.6928C73.5461 80.2129 72.2633 79.4761 71.6932 79.0584C71.123 78.6381 70.1926 77.603 69.6277 76.7547C69.0627 75.9064 68.3189 74.4536 67.9768 73.5274C67.4741 72.1732 67.3264 71.1796 67.2253 68.4686C67.1294 65.8198 67.1968 64.7069 67.5492 63.28C67.7954 62.2812 68.35 60.7636 68.7828 59.9075C69.2156 59.0514 70.2211 57.7075 71.0193 56.9189ZM135.834 42.7567C133.728 42.173 132.738 42.0615 128.967 41.981C125.359 41.9032 124.162 41.9733 122.358 42.3728C121.145 42.64 119.513 43.0992 118.73 43.3949C117.947 43.6907 116.605 44.3859 115.75 44.9437C114.895 45.4989 113.459 46.7 112.56 47.6132C111.614 48.5705 110.642 49.8728 110.258 50.6978C109.893 51.4813 109.437 52.8848 109.242 53.8109C109.051 54.7371 108.89 56.4312 108.89 57.5726C108.89 58.7141 109.064 60.377 109.273 61.2695C109.486 62.1619 109.877 63.3293 110.144 63.8638C110.411 64.3982 111.215 65.48 111.927 66.2635C112.64 67.0469 113.967 68.1313 114.876 68.6683C115.784 69.2054 117.46 70.007 118.601 70.4454C119.741 70.8864 123.299 71.8204 126.505 72.5234C129.713 73.2239 132.966 74.0592 133.738 74.3757C134.508 74.6948 135.472 75.333 135.876 75.7974C136.324 76.3111 136.674 77.0738 136.773 77.7431C136.861 78.3502 136.806 79.253 136.653 79.7537C136.501 80.2544 136.05 80.9885 135.65 81.3881C135.254 81.7876 134.461 82.3272 133.891 82.5892C133.321 82.8512 132.154 83.2093 131.299 83.3857C130.304 83.5906 129.045 83.6399 127.801 83.5232C126.733 83.4246 125.274 83.1236 124.561 82.859C123.848 82.5918 122.693 81.8732 121.99 81.2584C121.252 80.6124 120.461 79.598 120.114 78.8457C119.782 78.1323 119.513 77.2269 119.51 76.8351C119.508 76.4434 119.391 76.062 119.248 75.992C119.106 75.9219 116.512 76.0984 113.482 76.3889C110.453 76.6795 107.77 76.97 107.522 77.0375C107.161 77.1335 107.102 77.3332 107.231 78.0025C107.319 78.4669 107.623 79.5461 107.905 80.4022C108.188 81.2584 108.758 82.6593 109.172 83.5154C109.587 84.3715 110.479 85.7413 111.155 86.5585C111.829 87.3757 113.14 88.6313 114.065 89.3473C115.177 90.2086 116.652 91.0025 118.406 91.6874C119.868 92.2581 122.084 92.9015 123.33 93.1168C124.577 93.3321 127.057 93.5085 128.837 93.5085C130.62 93.5085 133.069 93.3373 134.28 93.1298C135.49 92.9222 137.358 92.4371 138.426 92.0505C139.496 91.664 141.069 90.9376 141.925 90.4369C142.78 89.9362 144.236 88.7558 145.164 87.8167C146.092 86.875 147.217 85.4066 147.668 84.5505C148.119 83.697 148.694 82.2961 148.948 81.44C149.264 80.3659 149.404 79.0403 149.394 77.1594C149.386 75.0347 149.254 74.0644 148.803 72.7491C148.481 71.823 147.795 70.4299 147.276 69.6594C146.755 68.8863 145.688 67.6747 144.905 66.9665C144.122 66.2583 142.956 65.4151 142.313 65.096C141.671 64.7744 140.331 64.2218 139.333 63.8663C138.335 63.5109 136.063 62.9117 134.28 62.5303C132.499 62.1515 129.757 61.5393 128.189 61.1735C126.621 60.8051 124.756 60.2318 124.043 59.8971C123.33 59.5624 122.457 58.9787 122.099 58.6C121.622 58.0941 121.425 57.5623 121.358 56.5764C121.272 55.3831 121.358 55.1107 122.135 54.0859C122.633 53.427 123.556 52.6513 124.294 52.2699C125.427 51.6862 125.885 51.6084 128.052 51.6292C129.921 51.6447 130.869 51.7848 131.947 52.2077C132.73 52.5112 133.782 53.0949 134.28 53.5022C134.777 53.9069 135.448 54.7864 135.77 55.4531C136.091 56.1198 136.353 56.8981 136.353 57.1835C136.353 57.4715 136.547 57.7309 136.788 57.7672C137.027 57.8035 138.631 57.7465 140.352 57.6427C142.072 57.5363 144.586 57.3002 145.942 57.116L148.404 56.784C148.303 54.7812 148.139 53.8499 147.976 53.4218C147.813 52.9937 147.333 51.8834 146.916 50.9572C146.351 49.7068 145.641 48.7677 144.169 47.3227C142.785 45.9685 141.596 45.0838 140.24 44.4067C139.172 43.8723 137.19 43.1303 135.834 42.7567ZM311.932 42.2846C310.649 42.0615 308.433 41.8851 307.008 41.8954C305.393 41.9058 303.341 42.1315 301.565 42.4973C299.997 42.819 297.898 43.4624 296.9 43.9242C295.903 44.3885 294.169 45.4314 293.047 46.2408C291.925 47.0503 290.458 48.3578 289.787 49.1412C289.113 49.9247 288.097 51.2686 287.524 52.1247C286.951 52.9808 286.122 54.4413 285.682 55.3675C285.238 56.2937 284.632 57.8139 284.331 58.7401C284.033 59.6662 283.619 61.5341 283.414 62.8909C283.207 64.2477 283.038 66.4632 283.038 67.82C283.038 69.1768 283.217 71.3923 283.435 72.7491C283.655 74.106 284.238 76.3811 284.736 77.808C285.233 79.2348 286.151 81.2194 286.775 82.2182C287.402 83.217 288.374 84.618 288.939 85.3314C289.502 86.0448 290.766 87.2823 291.748 88.0787C292.728 88.8752 294.172 89.8895 294.957 90.3305C295.742 90.7716 297.315 91.4928 298.455 91.9312C299.596 92.3722 301.462 92.9222 302.602 93.1531C304.211 93.4774 305.546 93.5397 308.563 93.4281C310.721 93.3451 313.199 93.0986 314.134 92.8677C315.062 92.6394 317.04 91.843 318.535 91.0984C320.647 90.0426 321.704 89.3084 323.293 87.7959C324.418 86.7271 325.877 85.033 326.532 84.0342C327.188 83.0354 328.178 81.0508 328.733 79.624C329.287 78.1971 329.756 76.5679 329.777 76.005C329.808 75.1203 329.723 74.9517 329.165 74.7857C328.81 74.6793 326.214 74.2357 323.399 73.7998C320.585 73.364 318.193 73.0527 318.087 73.1071C317.98 73.159 317.794 73.6546 317.672 74.2097C317.55 74.7623 317.159 75.7974 316.801 76.5108C316.443 77.2243 315.552 78.3735 314.819 79.0636C314.085 79.7537 312.73 80.6876 311.802 81.139C310.252 81.894 309.91 81.9588 307.526 81.9562C305.139 81.9536 304.794 81.8862 303.185 81.1131C302.167 80.6228 300.86 79.7044 300.06 78.9105C299.303 78.1608 298.258 76.7884 297.74 75.8623C297.219 74.9309 296.558 73.1902 296.268 71.9709C295.975 70.7567 295.737 68.92 295.737 67.8849C295.734 66.8498 295.903 65.2154 296.107 64.2529C296.31 63.2904 296.924 61.4589 297.468 60.1825C298.23 58.3898 298.779 57.5363 299.881 56.4338C300.749 55.5647 301.964 54.6982 302.991 54.2156C304.551 53.4815 304.888 53.4218 307.526 53.4218C310.035 53.4218 310.548 53.5022 311.802 54.0833C312.587 54.4465 313.797 55.2637 314.495 55.8993C315.192 56.5349 316.018 57.4611 316.335 57.9618C316.648 58.4625 317.097 59.482 317.332 60.2318C317.641 61.2072 317.892 61.5886 318.216 61.5782C318.465 61.5704 321.176 61.132 324.242 60.6053L329.813 59.6481C329.692 58.6441 329.414 57.5908 329.119 56.6646C328.826 55.7385 328.108 53.9873 327.528 52.7732C326.67 50.9858 326.071 50.1738 324.358 48.4927C323.15 47.3045 321.373 45.8984 320.199 45.2057C319.074 44.539 317.278 43.7011 316.208 43.343C315.14 42.985 313.214 42.5077 311.932 42.2846ZM193.367 43.1744C193.069 43.0239 190.574 42.9228 187.471 42.9306C184.515 42.9409 181.856 43.0499 181.565 43.1744C181.27 43.2989 180.948 43.7763 180.832 44.2588C180.718 44.7336 180.461 45.7038 180.259 46.4173C180.057 47.1307 179.422 49.4059 178.847 51.4761C178.271 53.5463 177.561 56.1121 177.271 57.1835C176.981 58.2523 176.579 59.7129 176.377 60.4263C176.175 61.1398 175.325 64.1751 174.49 67.1715C173.653 70.1678 172.806 73.2343 172.606 73.984C172.409 74.7364 172.186 75.3512 172.116 75.3538C172.046 75.3538 171.785 74.6222 171.538 73.7272C171.295 72.8322 170.678 70.4091 170.17 68.3389C169.662 66.2687 168.968 63.293 168.626 61.7235C168.284 60.1539 167.82 58.4313 167.597 57.8969C167.374 57.3625 166.832 55.5517 166.389 53.8758C165.948 52.1999 165.153 49.1361 164.624 47.0658L163.663 43.3041C153.846 43.1978 150.85 43.2263 150.671 43.3015C150.425 43.4001 150.503 43.9242 150.985 45.4444C151.337 46.5496 152.104 49.0297 152.69 50.9572C153.276 52.8848 154.051 55.4505 154.411 56.6646C154.771 57.8788 155.333 59.8037 155.66 60.9452C155.989 62.0867 157.684 67.5736 159.428 73.1383C161.172 78.703 163.051 84.7736 163.601 86.6285C164.153 88.4834 164.65 90.2345 164.707 90.5199C164.767 90.8053 164.883 91.2437 164.966 91.4928C165.049 91.7418 165.381 92.009 165.702 92.0843C166.024 92.1595 168.955 92.1906 172.22 92.1491L178.152 92.0765C179.077 89.0593 179.99 85.8502 180.777 82.9965C181.565 80.1428 182.755 75.8804 183.418 73.5274C184.082 71.1744 184.968 68.0198 185.388 66.5229C185.642 65.6158 185.961 64.4743 186.243 63.4685C186.425 62.8146 186.592 62.218 186.715 61.7806C187.023 60.6702 187.337 59.7648 187.407 59.7648C187.477 59.7648 188.039 61.6664 188.656 63.9883C189.27 66.3102 190.107 69.3169 190.511 70.6737C190.918 72.0305 192.139 76.3474 193.225 80.2725C194.311 84.1951 195.438 88.224 195.731 89.2228C196.024 90.2216 196.368 91.3008 196.501 91.6225C196.736 92.2062 196.749 92.2062 202.956 92.2062C209.145 92.2062 209.178 92.2036 209.474 91.6225C209.637 91.3008 210.054 90.0478 210.396 88.8336C210.741 87.6195 211.703 84.4701 212.535 81.8291C213.364 79.1881 214.356 75.9219 214.74 74.5651C215.121 73.2083 215.784 70.9331 216.209 69.5063C216.637 68.0794 217.275 66.0352 217.63 64.9663C217.982 63.8949 218.381 62.7871 218.513 62.5018C218.645 62.2164 218.861 61.5159 218.993 60.9452C219.122 60.3745 220.167 56.8125 221.315 53.0327C222.463 49.2528 223.582 45.5741 223.8 44.8607C224.02 44.1473 224.202 43.4754 224.204 43.369C224.207 43.2626 221.291 43.1744 217.728 43.1744C212.768 43.1744 211.226 43.2497 211.153 43.4987C211.099 43.6777 210.855 44.6973 210.612 45.7687C210.365 46.8375 209.946 48.5316 209.676 49.5304C209.477 50.2693 209.039 51.8999 208.584 53.5933C208.425 54.189 208.263 54.7924 208.108 55.3675C207.834 56.3836 207.54 57.476 207.279 58.4497C206.971 59.594 206.707 60.5745 206.571 61.0749C206.32 62.0011 205.628 64.6291 205.029 66.912C204.433 69.195 203.715 71.9968 203.436 73.1383C203.156 74.2798 202.881 75.2734 202.827 75.3434C202.772 75.4135 202.443 74.4821 202.093 73.268C201.746 72.0539 201.401 70.8294 201.329 70.544C201.259 70.2586 200.481 67.4568 199.605 64.3177C198.727 61.1787 197.553 56.8592 196.993 54.7189C196.433 52.5787 195.578 49.6601 195.093 48.2333C194.609 46.8064 194.14 45.1435 194.049 44.5364C193.94 43.8014 193.713 43.3474 193.367 43.1744ZM241.757 43.2289C241.516 42.9721 240.238 42.9046 236.387 42.9409C233.607 42.9669 230.888 43.0603 230.344 43.1459L229.354 43.3041C229.261 91.773 229.266 91.9701 229.779 92.0972C230.064 92.1647 232.922 92.1906 236.128 92.1491L241.959 92.0765C242.06 49.0063 242.003 43.4883 241.757 43.2289ZM12.6054 43.3041L0 43.164L0.116621 59.3186C0.212509 72.3704 0.308397 75.8467 0.62716 77.4188C0.84226 78.4903 1.37612 80.4749 1.80891 81.8291C2.2443 83.1937 3.05546 84.9889 3.62042 85.8502C4.18279 86.7063 5.33086 88.0502 6.17052 88.8336C7.01019 89.6197 8.50812 90.6859 9.50328 91.2074C10.4959 91.7289 12.1259 92.4034 13.1237 92.7069C14.1215 93.0104 15.6945 93.3295 16.6223 93.4125C17.5475 93.4982 19.3564 93.4281 20.6393 93.2595C21.9221 93.0908 23.788 92.668 24.7858 92.3229C25.7835 91.9753 27.4058 91.1374 28.3932 90.4577C29.378 89.778 30.8371 88.499 31.6327 87.6117C32.4283 86.7245 33.1358 85.9955 33.2084 85.9877C33.2783 85.9825 33.4338 87.233 33.5479 88.7662C33.6645 90.302 33.8977 91.7081 34.0662 91.8923C34.302 92.1491 35.6781 92.2244 39.8169 92.214C42.8101 92.2062 45.3939 92.1128 45.5572 92.0064C45.7749 91.8689 45.7852 91.3345 45.5961 90.0011C45.4483 88.9582 45.2877 78.6252 45.2255 65.7446L45.1114 43.3041L32.773 43.164C32.6797 57.5467 32.5553 64.2918 32.4335 67.4309C32.2866 71.2358 32.0776 73.6139 31.8063 74.5651C31.5834 75.3486 31.0729 76.516 30.6712 77.1594C30.2721 77.8028 29.3677 78.7601 28.6602 79.2919C27.9475 79.8263 26.4832 80.5475 25.3689 80.9133C24.1094 81.3258 22.7566 81.5723 21.7407 81.5775C20.4138 81.5826 19.7918 81.4218 18.3068 80.6954C17.0655 80.0858 16.1558 79.4086 15.4302 78.5473C14.8445 77.8547 14.2329 77.0271 14.0696 76.7054C13.9064 76.3837 13.5746 75.3927 13.3336 74.5003C12.9553 73.102 12.8775 70.8475 12.7505 58.0915L12.6054 43.3041Z" fill="#F4F1EA"/>
<path fill-rule="evenodd" clip-rule="evenodd" d="M262.044 0.27809C261.546 0.200261 260.554 0.0861132 259.841 0.0264449C259.128 -0.0358177 257.789 0.0160678 256.861 0.137999C255.503 0.314409 254.075 0.892933 249.475 3.1292C246.339 4.65204 241.031 7.25928 237.683 8.92221C234.335 10.5825 230.6 12.4841 229.39 13.1431C228.18 13.802 226.617 14.8449 225.917 15.4624C225.22 16.0772 224.334 17.0501 223.948 17.6208C223.562 18.1916 222.979 19.359 222.649 20.2151C222.191 21.4162 222.059 22.2775 222.069 23.9768C222.077 25.4581 222.245 26.6489 222.579 27.6088C222.854 28.3948 223.432 29.5623 223.862 30.203C224.292 30.8438 225.158 31.8193 225.788 32.3667C226.415 32.9141 227.599 33.7027 228.418 34.1178C229.237 34.5329 230.753 35.0102 231.787 35.1789C233.233 35.4149 234.055 35.4149 235.351 35.1789C236.605 34.9506 239.189 33.835 245.458 30.8179C250.089 28.5894 256.096 25.7046 258.804 24.41C261.513 23.1129 264.4 21.6679 265.219 21.1983C266.18 20.6483 267.217 19.7222 268.139 18.5937C269.098 17.4185 269.707 16.373 269.987 15.4157C270.215 14.6296 270.464 13.2287 270.536 12.3026C270.612 11.3764 270.529 9.85615 270.352 8.92999C270.176 8.00384 269.723 6.67298 269.342 5.97771C268.963 5.27985 267.924 4.02422 267.033 3.18887C266.141 2.35091 264.858 1.38584 264.182 1.0434C263.505 0.700956 262.541 0.355918 262.044 0.27809Z" fill="#C87F63"/>
</svg>
