<?xml version="1.0" encoding="UTF-8"?>
<svg width="32" height="32" viewBox="2400 1900 1000 1300" fill="none" xmlns="http://www.w3.org/2000/svg" role="img" aria-labelledby="favicon-title">
<title id="favicon-title">Upswitch - European SME M&A Platform</title>
<path d="M3325 2431.71C3349.85 2431.71 3370 2451.85 3370 2476.71V2861.71C3370 3035.68 3228.97 3176.71 3055 3176.71H2755C2581.03 3176.71 2440 3035.68 2440 2861.71V2476.71C2440 2451.85 2460.15 2431.71 2485 2431.71H2685V2806.71C2685 2867.46 2734.25 2916.71 2795 2916.71H3015C3075.75 2916.71 3125 2867.46 3125 2806.71V2431.71H3325Z" fill="#0F766E"/>
<path d="M2859.3 1961.66C2884.64 1936.73 2925.31 1936.79 2950.58 1961.78L3263.92 2271.66C3296.62 2304 3272 2359.61 3226.08 2357.14L3050 2347.67V2806.71C3050 2828.8 3032.09 2846.71 3010 2846.71H2800C2777.91 2846.71 2760 2828.8 2760 2806.71V2346.84L2582.4 2356.79C2536.36 2359.37 2511.67 2303.55 2544.55 2271.22L2859.3 1961.66Z" fill="#134E4A"/>
<path d="M3325 2431.71C3349.85 2431.71 3370 2451.85 3370 2476.71V2861.71C3370 3035.68 3228.97 3176.71 3055 3176.71H2905V2916.71H3015C3075.75 2916.71 3125 2867.46 3125 2806.71V2431.71H3325Z" fill="#14B8A6"/>
</svg>