<?xml version="1.0" encoding="UTF-8"?>
<svg width="770" height="1113" viewBox="0 0 770 1113" fill="none" xmlns="http://www.w3.org/2000/svg" role="img" aria-labelledby="logo-title">
<title id="logo-title">Upswitch</title>
<defs>
  <linearGradient id="mainGradient" x1="0%" y1="0%" x2="0%" y2="100%">
    <stop offset="0%" style="stop-color:#0F766E;stop-opacity:1" />
    <stop offset="100%" style="stop-color:#134E4A;stop-opacity:1" />
  </linearGradient>
</defs>
<!-- Simplified main switch body with clean rounded corners -->
<path d="M 324 1099.5 
         L 324 377 
         C 286 377, 204 375, 180 369 
         C 155 363, 158 322, 163 303 
         L 433 12 
         C 476 -8, 498 4, 503 12 
         C 569 85, 710 242, 752 288 
         C 793 334, 751 366, 725 377 
         L 617 377 
         L 617 867 
         C 617 981, 422 1070, 324 1099.5 Z" 
         fill="url(#mainGradient)"/>
<!-- Simplified switch handle with clean rounded corners -->
<path d="M 211 698.5 
         L 26.5 698.5 
         C 18 707, 2 728, 1 745 
         C 0 761, 1 996, 1 1112 
         L 244 1112 
         L 244 745 
         C 244 717, 222 702, 211 698.5 Z" 
         fill="#134E4A"/>
<!-- Toggle indicator with glow -->
<circle cx="324" cy="738" r="16" fill="#14B8A6" opacity="0.2"/>
<circle cx="324" cy="738" r="12" fill="#14B8A6"/>
</svg>
